<svg id="Ebene_1" data-name="Ebene 1" xmlns="http://www.w3.org/2000/svg" viewBox="0 0 409.9 409.9"><defs><style>.cls-1{fill:none;stroke:#f7deb7;stroke-miterlimit:10;stroke-width:7px;}.cls-2{fill:#f7deb7;}</style></defs><rect class="cls-1" x="63.53" y="63.53" width="282.84" height="282.84" transform="translate(204.95 -84.89) rotate(45)"/><path class="cls-2" d="M155.14,182.94l-39,18.09,39,18.1v4.35l-43.67-20.36V199l43.67-20.36Z"/><path class="cls-2" d="M189.51,162.67l4.52,1.56-26.36,66.3L163.06,229Z"/><path class="cls-2" d="M200.3,187.2h5.22v7.05h.17a13.58,13.58,0,0,1,3-3.61,17.94,17.94,0,0,1,4-2.52,19.79,19.79,0,0,1,4.48-1.48,23,23,0,0,1,4.61-.48,22.5,22.5,0,0,1,8.49,1.56,19.7,19.7,0,0,1,11.09,11.1,23.69,23.69,0,0,1,0,17,20,20,0,0,1-4.39,6.7,19.84,19.84,0,0,1-6.7,4.39,22.31,22.31,0,0,1-8.49,1.57,23,23,0,0,1-4.61-.48,19.79,19.79,0,0,1-4.48-1.48,18.31,18.31,0,0,1-4-2.52,13.74,13.74,0,0,1-3-3.61h-.17v26.88H200.3ZM205,207.3a15.85,15.85,0,0,0,1.31,6.39,16.51,16.51,0,0,0,3.56,5.22,17.18,17.18,0,0,0,5.31,3.53,16.59,16.59,0,0,0,6.61,1.3,16.26,16.26,0,0,0,6.62-1.3,15.32,15.32,0,0,0,5-3.53,15.08,15.08,0,0,0,3.18-5.22,19.47,19.47,0,0,0,0-12.79,15.08,15.08,0,0,0-3.18-5.22,15.44,15.44,0,0,0-5-3.52,16.26,16.26,0,0,0-6.62-1.3,16.59,16.59,0,0,0-6.61,1.3,17.33,17.33,0,0,0-5.31,3.52,16.51,16.51,0,0,0-3.56,5.22A15.93,15.93,0,0,0,205,207.3Z"/><path class="cls-2" d="M254.76,219.13l39-18.1-39-18.09v-4.35L298.43,199v4.17l-43.67,20.36Z"/></svg>