<svg id="Ebene_1" data-name="Ebene 1" xmlns="http://www.w3.org/2000/svg" viewBox="0 0 409.9 409.9"><defs><style>.cls-1,.cls-3{fill:#fff;}.cls-1{stroke:#f7deb7;stroke-miterlimit:10;stroke-width:7px;}.cls-2{fill:#e54e27;}.cls-4{fill:#010102;}</style></defs><rect class="cls-1" x="63.53" y="63.53" width="282.84" height="282.84" transform="translate(204.95 -84.89) rotate(45)"/><polygon class="cls-2" points="204.87 296.37 153.79 282.19 142.4 154.49 267.5 154.49 256.1 282.16 204.87 296.37"/><polygon class="cls-3" points="205 196.25 242.77 196.25 244.17 180.59 205 180.59 204.94 180.59 165.73 180.59 169.95 227.95 204.94 227.95 205 227.95 224.23 227.95 222.41 248.26 204.94 252.98 204.94 252.98 204.93 252.98 187.49 248.27 186.37 235.78 170.65 235.78 172.85 260.37 204.92 269.28 205 269.26 205 269.25 237.05 260.37 241.35 212.29 205 212.29 204.94 212.29 184.27 212.29 182.84 196.25 204.94 196.25 205 196.25"/><path class="cls-4" d="M184.82,132.32h-2.55V124h-9.12v8.3h-2.54V113.53h2.54V122h9.12v-8.49h2.55Z"/><path class="cls-4" d="M202,115.53h-6.19v16.79h-2.54V115.53h-6.12v-2H202Z"/><path class="cls-4" d="M214,128.8H214l6-15.27h3.16v18.79h-2.54V118.24h-.08l-5.69,14.09h-1.77l-5.86-14.56-.07,0v14.54h-2.55V113.53H208Z"/><path class="cls-4" d="M230.13,130.33h9.16v2h-11.7V113.53h2.54Z"/></svg>